  0
SECTION
  2
HEADER
  9
$ACADVER
  1
AC1009
  9
$EXTMIN
 10
0.0
 20
0.0
 30
0.0
  9
$EXTMAX
 10
1000.0
 20
1000.0
 30
0.0
  9
$FILLMODE
 70
 0
  9
$SPLFRAME
 70
 1
  0
ENDSEC
  0
SECTION
  2
TABLES
  0
TABLE
  2
LAYER
 70
1
  0
LAYER
  2
0
 70
     0
 62
     7
  6
CONTINUOUS
  0
ENDTAB
  0
ENDSEC
  0
SECTION
  2
ENTITIES
  0
LINE
  8
0
 62
     0
 10
251.982
 20
88.452
 30
0.0
 11
252.218
 21
88.4424
 31
0.0
  0
LINE
  8
0
 62
     0
 10
252.218
 20
88.4424
 30
0.0
 11
252.452
 21
88.4163
 31
0.0
  0
LINE
  8
0
 62
     0
 10
252.452
 20
88.4163
 30
0.0
 11
252.684
 21
88.3694
 31
0.0
  0
LINE
  8
0
 62
     0
 10
252.684
 20
88.3694
 30
0.0
 11
252.91
 21
88.3059
 31
0.0
  0
LINE
  8
0
 62
     0
 10
252.91
 20
88.3059
 30
0.0
 11
253.132
 21
88.2234
 31
0.0
  0
LINE
  8
0
 62
     0
 10
253.132
 20
88.2234
 30
0.0
 11
253.346
 21
88.1257
 31
0.0
  0
LINE
  8
0
 62
     0
 10
253.346
 20
88.1257
 30
0.0
 11
253.55
 21
88.0099
 31
0.0
  0
LINE
  8
0
 62
     0
 10
253.55
 20
88.0099
 30
0.0
 11
253.746
 21
87.8801
 31
0.0
  0
LINE
  8
0
 62
     0
 10
253.746
 20
87.8801
 30
0.0
 11
253.931
 21
87.7341
 31
0.0
  0
LINE
  8
0
 62
     0
 10
253.931
 20
87.7341
 30
0.0
 11
254.105
 21
87.5743
 31
0.0
  0
LINE
  8
0
 62
     0
 10
254.105
 20
87.5743
 30
0.0
 11
254.263
 21
87.4007
 31
0.0
  0
LINE
  8
0
 62
     0
 10
254.263
 20
87.4007
 30
0.0
 11
254.411
 21
87.2162
 31
0.0
  0
LINE
  8
0
 62
     0
 10
254.411
 20
87.2162
 30
0.0
 11
254.542
 21
87.0204
 31
0.0
  0
LINE
  8
0
 62
     0
 10
254.542
 20
87.0204
 30
0.0
 11
254.656
 21
86.8137
 31
0.0
  0
LINE
  8
0
 62
     0
 10
254.656
 20
86.8137
 30
0.0
 11
254.755
 21
86.5999
 31
0.0
  0
LINE
  8
0
 62
     0
 10
254.755
 20
86.5999
 30
0.0
 11
254.836
 21
86.3794
 31
0.0
  0
LINE
  8
0
 62
     0
 10
254.836
 20
86.3794
 30
0.0
 11
254.9
 21
86.1522
 31
0.0
  0
LINE
  8
0
 62
     0
 10
254.9
 20
86.1522
 30
0.0
 11
254.947
 21
85.9222
 31
0.0
  0
LINE
  8
0
 62
     0
 10
254.947
 20
85.9222
 30
0.0
 11
254.974
 21
85.688
 31
0.0
  0
LINE
  8
0
 62
     0
 10
254.974
 20
85.688
 30
0.0
 11
254.982
 21
85.4523
 31
0.0
  0
LINE
  8
0
 62
     0
 10
254.982
 20
85.4523
 30
0.0
 11
254.982
 21
3.25079
 31
0.0
  0
LINE
  8
0
 62
     0
 10
254.982
 20
3.25079
 30
0.0
 11
254.974
 21
3.01515
 31
0.0
  0
LINE
  8
0
 62
     0
 10
254.974
 20
3.01515
 30
0.0
 11
254.947
 21
2.78226
 31
0.0
  0
LINE
  8
0
 62
     0
 10
254.947
 20
2.78226
 30
0.0
 11
254.9
 21
2.55075
 31
0.0
  0
LINE
  8
0
 62
     0
 10
254.9
 20
2.55075
 30
0.0
 11
254.836
 21
2.32337
 31
0.0
  0
LINE
  8
0
 62
     0
 10
254.836
 20
2.32337
 30
0.0
 11
254.755
 21
2.10289
 31
0.0
  0
LINE
  8
0
 62
     0
 10
254.755
 20
2.10289
 30
0.0
 11
254.656
 21
1.88929
 31
0.0
  0
LINE
  8
0
 62
     0
 10
254.656
 20
1.88929
 30
0.0
 11
254.542
 21
1.68396
 31
0.0
  0
LINE
  8
0
 62
     0
 10
254.542
 20
1.68396
 30
0.0
 11
254.411
 21
1.48828
 31
0.0
  0
LINE
  8
0
 62
     0
 10
254.411
 20
1.48828
 30
0.0
 11
254.263
 21
1.30225
 31
0.0
  0
LINE
  8
0
 62
     0
 10
254.263
 20
1.30225
 30
0.0
 11
254.105
 21
1.12999
 31
0.0
  0
LINE
  8
0
 62
     0
 10
254.105
 20
1.12999
 30
0.0
 11
253.931
 21
0.970139
 31
0.0
  0
LINE
  8
0
 62
     0
 10
253.931
 20
0.970139
 30
0.0
 11
253.746
 21
0.824068
 31
0.0
  0
LINE
  8
0
 62
     0
 10
253.746
 20
0.824068
 30
0.0
 11
253.55
 21
0.693152
 31
0.0
  0
LINE
  8
0
 62
     0
 10
253.55
 20
0.693152
 30
0.0
 11
253.346
 21
0.577398
 31
0.0
  0
LINE
  8
0
 62
     0
 10
253.346
 20
0.577398
 30
0.0
 11
253.132
 21
0.479559
 31
0.0
  0
LINE
  8
0
 62
     0
 10
253.132
 20
0.479559
 30
0.0
 11
252.91
 21
0.398254
 31
0.0
  0
LINE
  8
0
 62
     0
 10
252.91
 20
0.398254
 30
0.0
 11
252.684
 21
0.333485
 31
0.0
  0
LINE
  8
0
 62
     0
 10
252.684
 20
0.333485
 30
0.0
 11
252.452
 21
0.28801
 31
0.0
  0
LINE
  8
0
 62
     0
 10
252.452
 20
0.28801
 30
0.0
 11
252.218
 21
0.260449
 31
0.0
  0
LINE
  8
0
 62
     0
 10
252.218
 20
0.260449
 30
0.0
 11
251.982
 21
0.250803
 31
0.0
  0
LINE
  8
0
 62
     0
 10
251.982
 20
0.250803
 30
0.0
 11
3.09507
 21
0.250803
 31
0.0
  0
LINE
  8
0
 62
     0
 10
3.09507
 20
0.250803
 30
0.0
 11
2.85943
 21
0.260449
 31
0.0
  0
LINE
  8
0
 62
     0
 10
2.85943
 20
0.260449
 30
0.0
 11
2.62516
 21
0.28801
 31
0.0
  0
LINE
  8
0
 62
     0
 10
2.62516
 20
0.28801
 30
0.0
 11
2.39503
 21
0.333485
 31
0.0
  0
LINE
  8
0
 62
     0
 10
2.39503
 20
0.333485
 30
0.0
 11
2.16765
 21
0.398254
 31
0.0
  0
LINE
  8
0
 62
     0
 10
2.16765
 20
0.398254
 30
0.0
 11
1.94717
 21
0.479559
 31
0.0
  0
LINE
  8
0
 62
     0
 10
1.94717
 20
0.479559
 30
0.0
 11
1.73357
 21
0.577398
 31
0.0
  0
LINE
  8
0
 62
     0
 10
1.73357
 20
0.577398
 30
0.0
 11
1.52687
 21
0.693152
 31
0.0
  0
LINE
  8
0
 62
     0
 10
1.52687
 20
0.693152
 30
0.0
 11
1.33119
 21
0.824068
 31
0.0
  0
LINE
  8
0
 62
     0
 10
1.33119
 20
0.824068
 30
0.0
 11
1.14653
 21
0.970139
 31
0.0
  0
LINE
  8
0
 62
     0
 10
1.14653
 20
0.970139
 30
0.0
 11
0.972894
 21
1.12999
 31
0.0
  0
LINE
  8
0
 62
     0
 10
0.972894
 20
1.12999
 30
0.0
 11
0.813043
 21
1.30225
 31
0.0
  0
LINE
  8
0
 62
     0
 10
0.813043
 20
1.30225
 30
0.0
 11
0.666972
 21
1.48828
 31
0.0
  0
LINE
  8
0
 62
     0
 10
0.666972
 20
1.48828
 30
0.0
 11
0.537436
 21
1.68396
 31
0.0
  0
LINE
  8
0
 62
     0
 10
0.537436
 20
1.68396
 30
0.0
 11
0.421679
 21
1.88929
 31
0.0
  0
LINE
  8
0
 62
     0
 10
0.421679
 20
1.88929
 30
0.0
 11
0.323839
 21
2.10289
 31
0.0
  0
LINE
  8
0
 62
     0
 10
0.323839
 20
2.10289
 30
0.0
 11
0.241157
 21
2.32337
 31
0.0
  0
LINE
  8
0
 62
     0
 10
0.241157
 20
2.32337
 30
0.0
 11
0.177767
 21
2.55075
 31
0.0
  0
LINE
  8
0
 62
     0
 10
0.177767
 20
2.55075
 30
0.0
 11
0.130914
 21
2.78226
 31
0.0
  0
LINE
  8
0
 62
     0
 10
0.130914
 20
2.78226
 30
0.0
 11
0.104731
 21
3.01515
 31
0.0
  0
LINE
  8
0
 62
     0
 10
0.104731
 20
3.01515
 30
0.0
 11
0.0950846
 21
3.25217
 31
0.0
  0
LINE
  8
0
 62
     0
 10
0.0950846
 20
3.25217
 30
0.0
 11
0.0950846
 21
85.4523
 31
0.0
  0
LINE
  8
0
 62
     0
 10
0.0950846
 20
85.4523
 30
0.0
 11
0.104731
 21
85.688
 31
0.0
  0
LINE
  8
0
 62
     0
 10
0.104731
 20
85.688
 30
0.0
 11
0.130914
 21
85.9222
 31
0.0
  0
LINE
  8
0
 62
     0
 10
0.130914
 20
85.9222
 30
0.0
 11
0.177767
 21
86.1522
 31
0.0
  0
LINE
  8
0
 62
     0
 10
0.177767
 20
86.1522
 30
0.0
 11
0.241157
 21
86.3794
 31
0.0
  0
LINE
  8
0
 62
     0
 10
0.241157
 20
86.3794
 30
0.0
 11
0.323839
 21
86.5999
 31
0.0
  0
LINE
  8
0
 62
     0
 10
0.323839
 20
86.5999
 30
0.0
 11
0.421679
 21
86.8137
 31
0.0
  0
LINE
  8
0
 62
     0
 10
0.421679
 20
86.8137
 30
0.0
 11
0.537436
 21
87.0204
 31
0.0
  0
LINE
  8
0
 62
     0
 10
0.537436
 20
87.0204
 30
0.0
 11
0.666972
 21
87.2162
 31
0.0
  0
LINE
  8
0
 62
     0
 10
0.666972
 20
87.2162
 30
0.0
 11
0.813043
 21
87.4007
 31
0.0
  0
LINE
  8
0
 62
     0
 10
0.813043
 20
87.4007
 30
0.0
 11
0.972894
 21
87.5743
 31
0.0
  0
LINE
  8
0
 62
     0
 10
0.972894
 20
87.5743
 30
0.0
 11
1.14653
 21
87.7341
 31
0.0
  0
LINE
  8
0
 62
     0
 10
1.14653
 20
87.7341
 30
0.0
 11
1.33119
 21
87.8801
 31
0.0
  0
LINE
  8
0
 62
     0
 10
1.33119
 20
87.8801
 30
0.0
 11
1.52687
 21
88.0099
 31
0.0
  0
LINE
  8
0
 62
     0
 10
1.52687
 20
88.0099
 30
0.0
 11
1.73357
 21
88.1257
 31
0.0
  0
LINE
  8
0
 62
     0
 10
1.73357
 20
88.1257
 30
0.0
 11
1.94717
 21
88.2234
 31
0.0
  0
LINE
  8
0
 62
     0
 10
1.94717
 20
88.2234
 30
0.0
 11
2.16765
 21
88.3059
 31
0.0
  0
LINE
  8
0
 62
     0
 10
2.16765
 20
88.3059
 30
0.0
 11
2.39503
 21
88.3694
 31
0.0
  0
LINE
  8
0
 62
     0
 10
2.39503
 20
88.3694
 30
0.0
 11
2.62516
 21
88.4163
 31
0.0
  0
LINE
  8
0
 62
     0
 10
2.62516
 20
88.4163
 30
0.0
 11
2.85943
 21
88.4424
 31
0.0
  0
LINE
  8
0
 62
     0
 10
2.85943
 20
88.4424
 30
0.0
 11
3.09507
 21
88.452
 31
0.0
  0
LINE
  8
0
 62
     0
 10
3.09507
 20
88.452
 30
0.0
 11
251.982
 21
88.452
 31
0.0
  0
LINE
  8
0
 62
     0
 10
2.209
 20
3.93982
 30
0.0
 11
1.86035
 21
3.76343
 31
0.0
  0
LINE
  8
0
 62
     0
 10
1.86035
 20
3.76343
 30
0.0
 11
1.58337
 21
3.48506
 31
0.0
  0
LINE
  8
0
 62
     0
 10
1.58337
 20
3.48506
 30
0.0
 11
1.40698
 21
3.13779
 31
0.0
  0
LINE
  8
0
 62
     0
 10
1.40698
 20
3.13779
 30
0.0
 11
1.34497
 21
2.75057
 31
0.0
  0
LINE
  8
0
 62
     0
 10
1.34497
 20
2.75057
 30
0.0
 11
1.40698
 21
2.36472
 31
0.0
  0
LINE
  8
0
 62
     0
 10
1.40698
 20
2.36472
 30
0.0
 11
1.58337
 21
2.01607
 31
0.0
  0
LINE
  8
0
 62
     0
 10
1.58337
 20
2.01607
 30
0.0
 11
1.86035
 21
1.73909
 31
0.0
  0
LINE
  8
0
 62
     0
 10
1.86035
 20
1.73909
 30
0.0
 11
2.209
 21
1.5627
 31
0.0
  0
LINE
  8
0
 62
     0
 10
2.209
 20
1.5627
 30
0.0
 11
2.59485
 21
1.50068
 31
0.0
  0
LINE
  8
0
 62
     0
 10
2.59485
 20
1.50068
 30
0.0
 11
2.98208
 21
1.5627
 31
0.0
  0
LINE
  8
0
 62
     0
 10
2.98208
 20
1.5627
 30
0.0
 11
3.32934
 21
1.73909
 31
0.0
  0
LINE
  8
0
 62
     0
 10
3.32934
 20
1.73909
 30
0.0
 11
3.60634
 21
2.01607
 31
0.0
  0
LINE
  8
0
 62
     0
 10
3.60634
 20
2.01607
 30
0.0
 11
3.78411
 21
2.36472
 31
0.0
  0
LINE
  8
0
 62
     0
 10
3.78411
 20
2.36472
 30
0.0
 11
3.84609
 21
2.75057
 31
0.0
  0
LINE
  8
0
 62
     0
 10
3.84609
 20
2.75057
 30
0.0
 11
3.78411
 21
3.13779
 31
0.0
  0
LINE
  8
0
 62
     0
 10
3.78411
 20
3.13779
 30
0.0
 11
3.60634
 21
3.48506
 31
0.0
  0
LINE
  8
0
 62
     0
 10
3.60634
 20
3.48506
 30
0.0
 11
3.32934
 21
3.76343
 31
0.0
  0
LINE
  8
0
 62
     0
 10
3.32934
 20
3.76343
 30
0.0
 11
2.98208
 21
3.93982
 31
0.0
  0
LINE
  8
0
 62
     0
 10
2.98208
 20
3.93982
 30
0.0
 11
2.59485
 21
4.00043
 31
0.0
  0
LINE
  8
0
 62
     0
 10
2.59485
 20
4.00043
 30
0.0
 11
2.209
 21
3.93982
 31
0.0
  0
LINE
  8
0
 62
     0
 10
85.5045
 20
3.93982
 30
0.0
 11
85.156
 21
3.76343
 31
0.0
  0
LINE
  8
0
 62
     0
 10
85.156
 20
3.76343
 30
0.0
 11
84.879
 21
3.48506
 31
0.0
  0
LINE
  8
0
 62
     0
 10
84.879
 20
3.48506
 30
0.0
 11
84.7027
 21
3.13779
 31
0.0
  0
LINE
  8
0
 62
     0
 10
84.7027
 20
3.13779
 30
0.0
 11
84.642
 21
2.75057
 31
0.0
  0
LINE
  8
0
 62
     0
 10
84.642
 20
2.75057
 30
0.0
 11
84.7027
 21
2.36472
 31
0.0
  0
LINE
  8
0
 62
     0
 10
84.7027
 20
2.36472
 30
0.0
 11
84.879
 21
2.01607
 31
0.0
  0
LINE
  8
0
 62
     0
 10
84.879
 20
2.01607
 30
0.0
 11
85.156
 21
1.73909
 31
0.0
  0
LINE
  8
0
 62
     0
 10
85.156
 20
1.73909
 30
0.0
 11
85.5045
 21
1.5627
 31
0.0
  0
LINE
  8
0
 62
     0
 10
85.5045
 20
1.5627
 30
0.0
 11
85.8919
 21
1.50068
 31
0.0
  0
LINE
  8
0
 62
     0
 10
85.8919
 20
1.50068
 30
0.0
 11
86.2774
 21
1.5627
 31
0.0
  0
LINE
  8
0
 62
     0
 10
86.2774
 20
1.5627
 30
0.0
 11
86.6249
 21
1.73909
 31
0.0
  0
LINE
  8
0
 62
     0
 10
86.6249
 20
1.73909
 30
0.0
 11
86.9019
 21
2.01607
 31
0.0
  0
LINE
  8
0
 62
     0
 10
86.9019
 20
2.01607
 30
0.0
 11
87.0797
 21
2.36472
 31
0.0
  0
LINE
  8
0
 62
     0
 10
87.0797
 20
2.36472
 30
0.0
 11
87.1418
 21
2.75057
 31
0.0
  0
LINE
  8
0
 62
     0
 10
87.1418
 20
2.75057
 30
0.0
 11
87.0797
 21
3.13779
 31
0.0
  0
LINE
  8
0
 62
     0
 10
87.0797
 20
3.13779
 30
0.0
 11
86.9019
 21
3.48506
 31
0.0
  0
LINE
  8
0
 62
     0
 10
86.9019
 20
3.48506
 30
0.0
 11
86.6249
 21
3.76343
 31
0.0
  0
LINE
  8
0
 62
     0
 10
86.6249
 20
3.76343
 30
0.0
 11
86.2774
 21
3.93982
 31
0.0
  0
LINE
  8
0
 62
     0
 10
86.2774
 20
3.93982
 30
0.0
 11
85.8919
 21
4.00043
 31
0.0
  0
LINE
  8
0
 62
     0
 10
85.8919
 20
4.00043
 30
0.0
 11
85.5045
 21
3.93982
 31
0.0
  0
LINE
  8
0
 62
     0
 10
168.801
 20
3.93982
 30
0.0
 11
168.453
 21
3.76343
 31
0.0
  0
LINE
  8
0
 62
     0
 10
168.453
 20
3.76343
 30
0.0
 11
168.177
 21
3.48506
 31
0.0
  0
LINE
  8
0
 62
     0
 10
168.177
 20
3.48506
 30
0.0
 11
167.998
 21
3.13779
 31
0.0
  0
LINE
  8
0
 62
     0
 10
167.998
 20
3.13779
 30
0.0
 11
167.937
 21
2.75057
 31
0.0
  0
LINE
  8
0
 62
     0
 10
167.937
 20
2.75057
 30
0.0
 11
167.998
 21
2.36472
 31
0.0
  0
LINE
  8
0
 62
     0
 10
167.998
 20
2.36472
 30
0.0
 11
168.177
 21
2.01607
 31
0.0
  0
LINE
  8
0
 62
     0
 10
168.177
 20
2.01607
 30
0.0
 11
168.453
 21
1.73909
 31
0.0
  0
LINE
  8
0
 62
     0
 10
168.453
 20
1.73909
 30
0.0
 11
168.801
 21
1.5627
 31
0.0
  0
LINE
  8
0
 62
     0
 10
168.801
 20
1.5627
 30
0.0
 11
169.187
 21
1.50068
 31
0.0
  0
LINE
  8
0
 62
     0
 10
169.187
 20
1.50068
 30
0.0
 11
169.573
 21
1.5627
 31
0.0
  0
LINE
  8
0
 62
     0
 10
169.573
 20
1.5627
 30
0.0
 11
169.923
 21
1.73909
 31
0.0
  0
LINE
  8
0
 62
     0
 10
169.923
 20
1.73909
 30
0.0
 11
170.199
 21
2.01607
 31
0.0
  0
LINE
  8
0
 62
     0
 10
170.199
 20
2.01607
 30
0.0
 11
170.376
 21
2.36472
 31
0.0
  0
LINE
  8
0
 62
     0
 10
170.376
 20
2.36472
 30
0.0
 11
170.437
 21
2.75057
 31
0.0
  0
LINE
  8
0
 62
     0
 10
170.437
 20
2.75057
 30
0.0
 11
170.376
 21
3.13779
 31
0.0
  0
LINE
  8
0
 62
     0
 10
170.376
 20
3.13779
 30
0.0
 11
170.199
 21
3.48506
 31
0.0
  0
LINE
  8
0
 62
     0
 10
170.199
 20
3.48506
 30
0.0
 11
169.923
 21
3.76343
 31
0.0
  0
LINE
  8
0
 62
     0
 10
169.923
 20
3.76343
 30
0.0
 11
169.573
 21
3.93982
 31
0.0
  0
LINE
  8
0
 62
     0
 10
169.573
 20
3.93982
 30
0.0
 11
169.187
 21
4.00043
 31
0.0
  0
LINE
  8
0
 62
     0
 10
169.187
 20
4.00043
 30
0.0
 11
168.801
 21
3.93982
 31
0.0
  0
LINE
  8
0
 62
     0
 10
252.097
 20
3.93982
 30
0.0
 11
251.748
 21
3.76343
 31
0.0
  0
LINE
  8
0
 62
     0
 10
251.748
 20
3.76343
 30
0.0
 11
251.473
 21
3.48506
 31
0.0
  0
LINE
  8
0
 62
     0
 10
251.473
 20
3.48506
 30
0.0
 11
251.295
 21
3.13779
 31
0.0
  0
LINE
  8
0
 62
     0
 10
251.295
 20
3.13779
 30
0.0
 11
251.233
 21
2.75057
 31
0.0
  0
LINE
  8
0
 62
     0
 10
251.233
 20
2.75057
 30
0.0
 11
251.295
 21
2.36472
 31
0.0
  0
LINE
  8
0
 62
     0
 10
251.295
 20
2.36472
 30
0.0
 11
251.473
 21
2.01607
 31
0.0
  0
LINE
  8
0
 62
     0
 10
251.473
 20
2.01607
 30
0.0
 11
251.748
 21
1.73909
 31
0.0
  0
LINE
  8
0
 62
     0
 10
251.748
 20
1.73909
 30
0.0
 11
252.097
 21
1.5627
 31
0.0
  0
LINE
  8
0
 62
     0
 10
252.097
 20
1.5627
 30
0.0
 11
252.483
 21
1.50068
 31
0.0
  0
LINE
  8
0
 62
     0
 10
252.483
 20
1.50068
 30
0.0
 11
252.87
 21
1.5627
 31
0.0
  0
LINE
  8
0
 62
     0
 10
252.87
 20
1.5627
 30
0.0
 11
253.219
 21
1.73909
 31
0.0
  0
LINE
  8
0
 62
     0
 10
253.219
 20
1.73909
 30
0.0
 11
253.494
 21
2.01607
 31
0.0
  0
LINE
  8
0
 62
     0
 10
253.494
 20
2.01607
 30
0.0
 11
253.672
 21
2.36472
 31
0.0
  0
LINE
  8
0
 62
     0
 10
253.672
 20
2.36472
 30
0.0
 11
253.733
 21
2.75057
 31
0.0
  0
LINE
  8
0
 62
     0
 10
253.733
 20
2.75057
 30
0.0
 11
253.672
 21
3.13779
 31
0.0
  0
LINE
  8
0
 62
     0
 10
253.672
 20
3.13779
 30
0.0
 11
253.494
 21
3.48506
 31
0.0
  0
LINE
  8
0
 62
     0
 10
253.494
 20
3.48506
 30
0.0
 11
253.219
 21
3.76343
 31
0.0
  0
LINE
  8
0
 62
     0
 10
253.219
 20
3.76343
 30
0.0
 11
252.87
 21
3.93982
 31
0.0
  0
LINE
  8
0
 62
     0
 10
252.87
 20
3.93982
 30
0.0
 11
252.483
 21
4.00043
 31
0.0
  0
LINE
  8
0
 62
     0
 10
252.483
 20
4.00043
 30
0.0
 11
252.097
 21
3.93982
 31
0.0
  0
LINE
  8
0
 62
     0
 10
6.09367
 20
82.4537
 30
0.0
 11
6.09367
 21
63.4009
 31
0.0
  0
LINE
  8
0
 62
     0
 10
6.09367
 20
63.4009
 30
0.0
 11
6.09505
 21
63.4009
 31
0.0
  0
LINE
  8
0
 62
     0
 10
6.09505
 20
63.4009
 30
0.0
 11
6.09505
 21
44.3523
 31
0.0
  0
LINE
  8
0
 62
     0
 10
6.09505
 20
44.3523
 30
0.0
 11
6.09367
 21
44.3523
 31
0.0
  0
LINE
  8
0
 62
     0
 10
6.09367
 20
44.3523
 30
0.0
 11
6.09367
 21
25.3008
 31
0.0
  0
LINE
  8
0
 62
     0
 10
6.09367
 20
25.3008
 30
0.0
 11
6.09505
 21
25.3008
 31
0.0
  0
LINE
  8
0
 62
     0
 10
6.09505
 20
25.3008
 30
0.0
 11
6.09505
 21
6.2508
 31
0.0
  0
LINE
  8
0
 62
     0
 10
6.09505
 20
6.2508
 30
0.0
 11
248.984
 21
6.2508
 31
0.0
  0
LINE
  8
0
 62
     0
 10
248.984
 20
6.2508
 30
0.0
 11
248.984
 21
82.4537
 31
0.0
  0
LINE
  8
0
 62
     0
 10
248.984
 20
82.4537
 30
0.0
 11
6.09367
 21
82.4537
 31
0.0
  0
LINE
  8
0
 62
     0
 10
2.209
 20
87.1403
 30
0.0
 11
1.86035
 21
86.964
 31
0.0
  0
LINE
  8
0
 62
     0
 10
1.86035
 20
86.964
 30
0.0
 11
1.58337
 21
86.687
 31
0.0
  0
LINE
  8
0
 62
     0
 10
1.58337
 20
86.687
 30
0.0
 11
1.40698
 21
86.3381
 31
0.0
  0
LINE
  8
0
 62
     0
 10
1.40698
 20
86.3381
 30
0.0
 11
1.34497
 21
85.9525
 31
0.0
  0
LINE
  8
0
 62
     0
 10
1.34497
 20
85.9525
 30
0.0
 11
1.40698
 21
85.5652
 31
0.0
  0
LINE
  8
0
 62
     0
 10
1.40698
 20
85.5652
 30
0.0
 11
1.58337
 21
85.2181
 31
0.0
  0
LINE
  8
0
 62
     0
 10
1.58337
 20
85.2181
 30
0.0
 11
1.86035
 21
84.9408
 31
0.0
  0
LINE
  8
0
 62
     0
 10
1.86035
 20
84.9408
 30
0.0
 11
2.209
 21
84.763
 31
0.0
  0
LINE
  8
0
 62
     0
 10
2.209
 20
84.763
 30
0.0
 11
2.59485
 21
84.7012
 31
0.0
  0
LINE
  8
0
 62
     0
 10
2.59485
 20
84.7012
 30
0.0
 11
2.98208
 21
84.763
 31
0.0
  0
LINE
  8
0
 62
     0
 10
2.98208
 20
84.763
 30
0.0
 11
3.32934
 21
84.9408
 31
0.0
  0
LINE
  8
0
 62
     0
 10
3.32934
 20
84.9408
 30
0.0
 11
3.60634
 21
85.2181
 31
0.0
  0
LINE
  8
0
 62
     0
 10
3.60634
 20
85.2181
 30
0.0
 11
3.78411
 21
85.5652
 31
0.0
  0
LINE
  8
0
 62
     0
 10
3.78411
 20
85.5652
 30
0.0
 11
3.84609
 21
85.9525
 31
0.0
  0
LINE
  8
0
 62
     0
 10
3.84609
 20
85.9525
 30
0.0
 11
3.78411
 21
86.3381
 31
0.0
  0
LINE
  8
0
 62
     0
 10
3.78411
 20
86.3381
 30
0.0
 11
3.60634
 21
86.687
 31
0.0
  0
LINE
  8
0
 62
     0
 10
3.60634
 20
86.687
 30
0.0
 11
3.32934
 21
86.964
 31
0.0
  0
LINE
  8
0
 62
     0
 10
3.32934
 20
86.964
 30
0.0
 11
2.98208
 21
87.1403
 31
0.0
  0
LINE
  8
0
 62
     0
 10
2.98208
 20
87.1403
 30
0.0
 11
2.59485
 21
87.2024
 31
0.0
  0
LINE
  8
0
 62
     0
 10
2.59485
 20
87.2024
 30
0.0
 11
2.209
 21
87.1403
 31
0.0
  0
LINE
  8
0
 62
     0
 10
252.097
 20
87.1403
 30
0.0
 11
251.748
 21
86.964
 31
0.0
  0
LINE
  8
0
 62
     0
 10
251.748
 20
86.964
 30
0.0
 11
251.473
 21
86.687
 31
0.0
  0
LINE
  8
0
 62
     0
 10
251.473
 20
86.687
 30
0.0
 11
251.295
 21
86.3381
 31
0.0
  0
LINE
  8
0
 62
     0
 10
251.295
 20
86.3381
 30
0.0
 11
251.233
 21
85.9525
 31
0.0
  0
LINE
  8
0
 62
     0
 10
251.233
 20
85.9525
 30
0.0
 11
251.295
 21
85.5652
 31
0.0
  0
LINE
  8
0
 62
     0
 10
251.295
 20
85.5652
 30
0.0
 11
251.473
 21
85.2181
 31
0.0
  0
LINE
  8
0
 62
     0
 10
251.473
 20
85.2181
 30
0.0
 11
251.748
 21
84.9408
 31
0.0
  0
LINE
  8
0
 62
     0
 10
251.748
 20
84.9408
 30
0.0
 11
252.097
 21
84.763
 31
0.0
  0
LINE
  8
0
 62
     0
 10
252.097
 20
84.763
 30
0.0
 11
252.483
 21
84.7012
 31
0.0
  0
LINE
  8
0
 62
     0
 10
252.483
 20
84.7012
 30
0.0
 11
252.87
 21
84.763
 31
0.0
  0
LINE
  8
0
 62
     0
 10
252.87
 20
84.763
 30
0.0
 11
253.219
 21
84.9408
 31
0.0
  0
LINE
  8
0
 62
     0
 10
253.219
 20
84.9408
 30
0.0
 11
253.494
 21
85.2181
 31
0.0
  0
LINE
  8
0
 62
     0
 10
253.494
 20
85.2181
 30
0.0
 11
253.672
 21
85.5652
 31
0.0
  0
LINE
  8
0
 62
     0
 10
253.672
 20
85.5652
 30
0.0
 11
253.733
 21
85.9525
 31
0.0
  0
LINE
  8
0
 62
     0
 10
253.733
 20
85.9525
 30
0.0
 11
253.672
 21
86.3381
 31
0.0
  0
LINE
  8
0
 62
     0
 10
253.672
 20
86.3381
 30
0.0
 11
253.494
 21
86.687
 31
0.0
  0
LINE
  8
0
 62
     0
 10
253.494
 20
86.687
 30
0.0
 11
253.219
 21
86.964
 31
0.0
  0
LINE
  8
0
 62
     0
 10
253.219
 20
86.964
 30
0.0
 11
252.87
 21
87.1403
 31
0.0
  0
LINE
  8
0
 62
     0
 10
252.87
 20
87.1403
 30
0.0
 11
252.483
 21
87.2024
 31
0.0
  0
LINE
  8
0
 62
     0
 10
252.483
 20
87.2024
 30
0.0
 11
252.097
 21
87.1403
 31
0.0
  0
LINE
  8
0
 62
     0
 10
168.801
 20
87.1403
 30
0.0
 11
168.453
 21
86.964
 31
0.0
  0
LINE
  8
0
 62
     0
 10
168.453
 20
86.964
 30
0.0
 11
168.177
 21
86.687
 31
0.0
  0
LINE
  8
0
 62
     0
 10
168.177
 20
86.687
 30
0.0
 11
167.998
 21
86.3381
 31
0.0
  0
LINE
  8
0
 62
     0
 10
167.998
 20
86.3381
 30
0.0
 11
167.937
 21
85.9525
 31
0.0
  0
LINE
  8
0
 62
     0
 10
167.937
 20
85.9525
 30
0.0
 11
167.998
 21
85.5652
 31
0.0
  0
LINE
  8
0
 62
     0
 10
167.998
 20
85.5652
 30
0.0
 11
168.177
 21
85.2181
 31
0.0
  0
LINE
  8
0
 62
     0
 10
168.177
 20
85.2181
 30
0.0
 11
168.453
 21
84.9408
 31
0.0
  0
LINE
  8
0
 62
     0
 10
168.453
 20
84.9408
 30
0.0
 11
168.801
 21
84.763
 31
0.0
  0
LINE
  8
0
 62
     0
 10
168.801
 20
84.763
 30
0.0
 11
169.187
 21
84.7012
 31
0.0
  0
LINE
  8
0
 62
     0
 10
169.187
 20
84.7012
 30
0.0
 11
169.573
 21
84.763
 31
0.0
  0
LINE
  8
0
 62
     0
 10
169.573
 20
84.763
 30
0.0
 11
169.923
 21
84.9408
 31
0.0
  0
LINE
  8
0
 62
     0
 10
169.923
 20
84.9408
 30
0.0
 11
170.199
 21
85.2181
 31
0.0
  0
LINE
  8
0
 62
     0
 10
170.199
 20
85.2181
 30
0.0
 11
170.376
 21
85.5652
 31
0.0
  0
LINE
  8
0
 62
     0
 10
170.376
 20
85.5652
 30
0.0
 11
170.437
 21
85.9525
 31
0.0
  0
LINE
  8
0
 62
     0
 10
170.437
 20
85.9525
 30
0.0
 11
170.376
 21
86.3381
 31
0.0
  0
LINE
  8
0
 62
     0
 10
170.376
 20
86.3381
 30
0.0
 11
170.199
 21
86.687
 31
0.0
  0
LINE
  8
0
 62
     0
 10
170.199
 20
86.687
 30
0.0
 11
169.923
 21
86.964
 31
0.0
  0
LINE
  8
0
 62
     0
 10
169.923
 20
86.964
 30
0.0
 11
169.573
 21
87.1403
 31
0.0
  0
LINE
  8
0
 62
     0
 10
169.573
 20
87.1403
 30
0.0
 11
169.187
 21
87.2024
 31
0.0
  0
LINE
  8
0
 62
     0
 10
169.187
 20
87.2024
 30
0.0
 11
168.801
 21
87.1403
 31
0.0
  0
LINE
  8
0
 62
     0
 10
85.5045
 20
87.1403
 30
0.0
 11
85.156
 21
86.964
 31
0.0
  0
LINE
  8
0
 62
     0
 10
85.156
 20
86.964
 30
0.0
 11
84.879
 21
86.687
 31
0.0
  0
LINE
  8
0
 62
     0
 10
84.879
 20
86.687
 30
0.0
 11
84.7027
 21
86.3381
 31
0.0
  0
LINE
  8
0
 62
     0
 10
84.7027
 20
86.3381
 30
0.0
 11
84.642
 21
85.9525
 31
0.0
  0
LINE
  8
0
 62
     0
 10
84.642
 20
85.9525
 30
0.0
 11
84.7027
 21
85.5652
 31
0.0
  0
LINE
  8
0
 62
     0
 10
84.7027
 20
85.5652
 30
0.0
 11
84.879
 21
85.2181
 31
0.0
  0
LINE
  8
0
 62
     0
 10
84.879
 20
85.2181
 30
0.0
 11
85.156
 21
84.9408
 31
0.0
  0
LINE
  8
0
 62
     0
 10
85.156
 20
84.9408
 30
0.0
 11
85.5045
 21
84.763
 31
0.0
  0
LINE
  8
0
 62
     0
 10
85.5045
 20
84.763
 30
0.0
 11
85.8919
 21
84.7012
 31
0.0
  0
LINE
  8
0
 62
     0
 10
85.8919
 20
84.7012
 30
0.0
 11
86.2774
 21
84.763
 31
0.0
  0
LINE
  8
0
 62
     0
 10
86.2774
 20
84.763
 30
0.0
 11
86.6249
 21
84.9408
 31
0.0
  0
LINE
  8
0
 62
     0
 10
86.6249
 20
84.9408
 30
0.0
 11
86.9019
 21
85.2181
 31
0.0
  0
LINE
  8
0
 62
     0
 10
86.9019
 20
85.2181
 30
0.0
 11
87.0797
 21
85.5652
 31
0.0
  0
LINE
  8
0
 62
     0
 10
87.0797
 20
85.5652
 30
0.0
 11
87.1418
 21
85.9525
 31
0.0
  0
LINE
  8
0
 62
     0
 10
87.1418
 20
85.9525
 30
0.0
 11
87.0797
 21
86.3381
 31
0.0
  0
LINE
  8
0
 62
     0
 10
87.0797
 20
86.3381
 30
0.0
 11
86.9019
 21
86.687
 31
0.0
  0
LINE
  8
0
 62
     0
 10
86.9019
 20
86.687
 30
0.0
 11
86.6249
 21
86.964
 31
0.0
  0
LINE
  8
0
 62
     0
 10
86.6249
 20
86.964
 30
0.0
 11
86.2774
 21
87.1403
 31
0.0
  0
LINE
  8
0
 62
     0
 10
86.2774
 20
87.1403
 30
0.0
 11
85.8919
 21
87.2024
 31
0.0
  0
LINE
  8
0
 62
     0
 10
85.8919
 20
87.2024
 30
0.0
 11
85.5045
 21
87.1403
 31
0.0
  0
ENDSEC
  0
EOF
